<svg width="128" height="128" viewBox="0 0 128 128" fill="none" xmlns="http://www.w3.org/2000/svg">
<path d="M110.585 0H17.415C7.79695 0 0 7.85035 0 17.5342V110.466C0 120.15 7.79695 128 17.415 128H110.585C120.203 128 128 120.15 128 110.466V17.5342C128 7.85035 120.203 0 110.585 0Z" fill="black"/>
<path d="M26.4309 64.4384C26.4309 43.5474 43.2511 26.6119 64 26.6119C84.7489 26.6119 101.569 43.5474 101.569 64.4384C101.569 69.0998 100.733 73.5597 99.2044 77.6776C98.8221 78.7077 99.3419 79.8545 100.364 80.2394C101.387 80.6241 102.526 80.1014 102.909 79.0712C104.6 74.5142 105.523 69.5827 105.523 64.4384C105.523 41.3483 86.933 22.6301 64 22.6301C41.067 22.6301 22.4762 41.3483 22.4762 64.4384C22.4762 87.5284 41.067 106.246 64 106.246C66.115 106.246 68.1939 106.087 70.2262 105.78C71.3058 105.616 72.0497 104.601 71.8872 103.514C71.725 102.427 70.7177 101.678 69.6378 101.842C67.8 102.12 65.9172 102.265 64 102.265C43.2511 102.265 26.4309 85.3294 26.4309 64.4384Z" fill="white"/>
<path d="M79.8185 90.3198C78.7267 90.3198 77.8412 91.2114 77.8412 92.3108C77.8412 93.4102 78.7267 94.3009 79.8185 94.3009H85.7506V100.274C85.7506 101.373 86.636 102.265 87.7279 102.265C88.8198 102.265 89.7054 101.373 89.7054 100.274V94.3009H95.6369C96.7288 94.3009 97.6144 93.4102 97.6144 92.3108C97.6144 91.2114 96.7288 90.3198 95.6369 90.3198H89.7054V84.347C89.7054 83.2477 88.8198 82.3562 87.7279 82.3562C86.636 82.3562 85.7506 83.2477 85.7506 84.347V90.3198H79.8185Z" fill="white"/>
<path fill-rule="evenodd" clip-rule="evenodd" d="M57.1078 50.786C56.4972 50.4169 55.7363 50.4074 55.1164 50.7607C54.4966 51.1142 54.1133 51.7759 54.1133 52.4932V76.3836C54.1133 77.1007 54.4966 77.7624 55.1164 78.116C55.7363 78.4696 56.4972 78.4596 57.1078 78.0905L76.8811 66.1453C77.477 65.7858 77.8412 65.1375 77.8412 64.4384C77.8412 63.7392 77.477 63.0909 76.8811 62.7314L57.1078 50.786ZM72.0208 64.4384L58.068 72.8673V56.0094L72.0208 64.4384Z" fill="white"/>
</svg>
