<svg width="72" height="72" viewBox="0 0 72 72" fill="none" xmlns="http://www.w3.org/2000/svg">
<path d="M7.5 36C7.5 20.2599 20.2599 7.5 36 7.5C51.7401 7.5 64.5 20.2599 64.5 36C64.5 39.5121 63.8655 42.8724 62.706 45.975C62.4162 46.7511 62.8101 47.6151 63.5862 47.9052C64.362 48.195 65.2263 47.8011 65.5164 47.025C66.7992 43.5915 67.5 39.876 67.5 36C67.5 18.603 53.397 4.5 36 4.5C18.603 4.5 4.5 18.603 4.5 36C4.5 53.397 18.603 67.5 36 67.5C37.6044 67.5 39.1815 67.38 40.7232 67.1481C41.5422 67.0248 42.1065 66.2607 41.9832 65.4417C41.8602 64.6224 41.0961 64.0581 40.2768 64.1814C38.8827 64.3911 37.4544 64.5 36 64.5C20.2599 64.5 7.5 51.7401 7.5 36Z" fill="white"/>
<path d="M48 55.5C47.1717 55.5 46.5 56.1717 46.5 57C46.5 57.8283 47.1717 58.5 48 58.5H52.5V63C52.5 63.8283 53.1717 64.5 54 64.5C54.8283 64.5 55.5 63.8283 55.5 63V58.5H60C60.8283 58.5 61.5 57.8283 61.5 57C61.5 56.1717 60.8283 55.5 60 55.5H55.5V51C55.5 50.1717 54.8283 49.5 54 49.5C53.1717 49.5 52.5 50.1717 52.5 51V55.5H48Z" fill="white"/>
<path fill-rule="evenodd" clip-rule="evenodd" d="M30.7716 25.7138C30.3084 25.4357 29.7312 25.4285 29.2609 25.6947C28.7907 25.961 28.5 26.4596 28.5 27V45C28.5 45.5403 28.7907 46.0389 29.2609 46.3053C29.7312 46.5717 30.3084 46.5642 30.7716 46.2861L45.7716 37.2861C46.2237 37.0152 46.5 36.5268 46.5 36C46.5 35.4732 46.2237 34.9848 45.7716 34.7139L30.7716 25.7138ZM42.0846 36L31.5 42.3507V29.6493L42.0846 36Z" fill="white"/>
</svg>
