<svg width="346" height="89" viewBox="0 0 346 89" fill="none" xmlns="http://www.w3.org/2000/svg">
<path d="M104.037 70.4583C103.325 70.4583 102.752 70.2606 102.317 69.865C101.922 69.4299 101.724 68.8761 101.724 68.2037V40.317C101.724 39.6446 101.922 39.0908 102.317 38.6557C102.752 38.2206 103.325 38.003 104.037 38.003C104.709 38.003 105.243 38.2206 105.639 38.6557C106.074 39.0908 106.291 39.6446 106.291 40.317V41.6223C107.398 40.3566 108.703 39.3875 110.206 38.715C111.709 38.003 113.369 37.647 115.188 37.647C117.403 37.647 119.36 38.1415 121.06 39.1303C122.8 40.1192 124.184 41.4839 125.212 43.2243C126.32 41.4839 127.803 40.1192 129.661 39.1303C131.52 38.1415 133.596 37.647 135.889 37.647C138.222 37.647 140.278 38.2008 142.058 39.3083C143.877 40.4159 145.28 41.9783 146.269 43.9957C147.297 46.013 147.811 48.3863 147.811 51.1157V68.2037C147.811 68.8761 147.594 69.4299 147.159 69.865C146.763 70.2606 146.229 70.4583 145.557 70.4583C144.885 70.4583 144.331 70.2606 143.896 69.865C143.461 69.4299 143.244 68.8761 143.244 68.2037V51.1157C143.244 48.3072 142.512 46.0921 141.049 44.4703C139.586 42.809 137.708 41.9783 135.415 41.9783C132.963 41.9783 130.946 42.809 129.364 44.4703C127.822 46.0921 127.071 48.2677 127.111 50.997V51.1157V68.2037C127.111 68.8761 126.893 69.4299 126.458 69.865C126.063 70.2606 125.529 70.4583 124.857 70.4583C124.184 70.4583 123.631 70.2606 123.196 69.865C122.761 69.4299 122.543 68.8761 122.543 68.2037V51.1157C122.543 48.3072 121.812 46.0921 120.349 44.4703C118.886 42.809 117.007 41.9783 114.714 41.9783C112.262 41.9783 110.245 42.7892 108.664 44.411C107.082 45.9932 106.291 48.0699 106.291 50.641V68.2037C106.291 68.8761 106.074 69.4299 105.639 69.865C105.243 70.2606 104.709 70.4583 104.037 70.4583ZM157.08 56.515C156.448 56.515 155.914 56.2975 155.479 55.8623C155.044 55.4272 154.826 54.8932 154.826 54.2603C154.826 53.5879 155.044 53.0341 155.479 52.599C155.914 52.1639 156.448 51.9463 157.08 51.9463H171.019C171.691 51.9463 172.245 52.1639 172.68 52.599C173.115 53.0341 173.332 53.5879 173.332 54.2603C173.332 54.8932 173.115 55.4272 172.68 55.8623C172.245 56.2975 171.691 56.515 171.019 56.515H157.08ZM193.774 70.4583C191.678 70.4583 189.8 69.9639 188.139 68.975C186.517 67.9861 185.232 66.6412 184.283 64.9403C183.334 63.1999 182.86 61.2221 182.86 59.007V43.165H179.004C178.411 43.165 177.917 42.987 177.521 42.631C177.126 42.2355 176.928 41.7608 176.928 41.207C176.928 40.6137 177.126 40.139 177.521 39.783C177.917 39.3875 178.411 39.1897 179.004 39.1897H182.86V29.993C182.86 29.3206 183.057 28.7668 183.453 28.3317C183.888 27.8966 184.441 27.679 185.114 27.679C185.786 27.679 186.34 27.8966 186.775 28.3317C187.209 28.7668 187.427 29.3206 187.427 29.993V39.1897H194.129C194.723 39.1897 195.217 39.3875 195.612 39.783C196.008 40.139 196.205 40.6137 196.205 41.207C196.205 41.7608 196.008 42.2355 195.612 42.631C195.217 42.987 194.723 43.165 194.129 43.165H187.427V59.007C187.427 61.0243 188.02 62.6857 189.206 63.991C190.393 65.2568 191.915 65.8897 193.774 65.8897H195.375C196.008 65.8897 196.522 66.1072 196.917 66.5423C197.313 66.9775 197.51 67.5312 197.51 68.2037C197.51 68.8761 197.273 69.4299 196.799 69.865C196.324 70.2606 195.731 70.4583 195.019 70.4583H193.774ZM219.061 70.8143C216.254 70.8143 213.743 70.2408 211.528 69.0937C209.314 67.907 207.554 66.1863 206.249 63.9317C204.984 61.677 204.351 58.9279 204.351 55.6843V40.2577C204.351 39.6248 204.569 39.0908 205.004 38.6557C205.439 38.2206 205.973 38.003 206.605 38.003C207.277 38.003 207.831 38.2206 208.266 38.6557C208.701 39.0908 208.919 39.6248 208.919 40.2577V55.6843C208.919 59.3235 209.927 62.033 211.944 63.813C213.96 65.593 216.491 66.483 219.536 66.483C221.473 66.483 223.213 66.1072 224.755 65.3557C226.337 64.6041 227.583 63.5757 228.492 62.2703C229.402 60.965 229.856 59.4817 229.856 57.8203V40.2577C229.856 39.5852 230.054 39.0512 230.45 38.6557C230.885 38.2206 231.438 38.003 232.11 38.003C232.783 38.003 233.336 38.2206 233.771 38.6557C234.206 39.0512 234.424 39.5852 234.424 40.2577V68.1443C234.424 68.8563 234.206 69.4299 233.771 69.865C233.336 70.2606 232.783 70.4583 232.11 70.4583C231.438 70.4583 230.885 70.2606 230.45 69.865C230.054 69.4299 229.856 68.8563 229.856 68.1443V66.127C228.552 67.5906 226.97 68.7377 225.111 69.5683C223.253 70.399 221.236 70.8143 219.061 70.8143ZM247.4 70.4583C246.688 70.4583 246.115 70.2606 245.68 69.865C245.284 69.4299 245.087 68.8761 245.087 68.2037V40.317C245.087 39.605 245.284 39.0512 245.68 38.6557C246.115 38.2206 246.688 38.003 247.4 38.003C248.072 38.003 248.606 38.2206 249.001 38.6557C249.436 39.0512 249.654 39.605 249.654 40.317V42.3343C250.919 40.8708 252.481 39.7237 254.34 38.893C256.238 38.0623 258.274 37.647 260.449 37.647C263.257 37.647 265.768 38.2403 267.982 39.427C270.196 40.5741 271.936 42.275 273.202 44.5297C274.507 46.7843 275.159 49.5335 275.159 52.777V68.2037C275.159 68.8366 274.941 69.3706 274.507 69.8057C274.072 70.2408 273.538 70.4583 272.905 70.4583C272.233 70.4583 271.679 70.2408 271.244 69.8057C270.809 69.3706 270.592 68.8366 270.592 68.2037V52.777C270.592 49.0983 269.564 46.3888 267.507 44.6483C265.491 42.8683 262.98 41.9783 259.975 41.9783C258.037 41.9783 256.277 42.3541 254.696 43.1057C253.153 43.8572 251.928 44.8857 251.018 46.191C250.109 47.4963 249.654 48.9797 249.654 50.641V68.2037C249.654 68.8761 249.436 69.4299 249.001 69.865C248.606 70.2606 248.072 70.4583 247.4 70.4583ZM299.938 70.755C296.735 70.755 293.887 70.0628 291.396 68.6783C288.945 67.2543 287.007 65.2963 285.583 62.8043C284.199 60.3123 283.507 57.4643 283.507 54.2603C283.507 51.0168 284.16 48.1688 285.465 45.7163C286.809 43.2243 288.648 41.2663 290.981 39.8423C293.314 38.4183 296.003 37.7063 299.048 37.7063C302.053 37.7063 304.663 38.3986 306.877 39.783C309.131 41.1279 310.871 43.0068 312.097 45.4197C313.323 47.8326 313.936 50.5817 313.936 53.667C313.936 54.2999 313.738 54.8141 313.343 55.2097C312.947 55.5657 312.433 55.7437 311.8 55.7437H287.837C288.075 57.8797 288.727 59.7783 289.795 61.4397C290.862 63.0615 292.266 64.347 294.006 65.2963C295.746 66.2061 297.723 66.661 299.938 66.661C301.361 66.661 302.785 66.4237 304.208 65.949C305.671 65.4348 306.838 64.8019 307.708 64.0503C308.143 63.6943 308.637 63.5163 309.191 63.5163C309.744 63.4768 310.219 63.6152 310.614 63.9317C311.128 64.4063 311.385 64.9206 311.385 65.4743C311.425 66.0281 311.207 66.5028 310.733 66.8983C309.428 68.0059 307.767 68.9355 305.75 69.687C303.734 70.399 301.796 70.755 299.938 70.755ZM299.048 41.8003C296.003 41.8003 293.492 42.7497 291.515 44.6483C289.538 46.5075 288.351 48.9401 287.956 51.9463H309.665C309.349 48.9401 308.242 46.5075 306.343 44.6483C304.485 42.7497 302.053 41.8003 299.048 41.8003ZM332.99 70.755C330.657 70.755 328.344 70.3595 326.051 69.5683C323.757 68.7772 321.899 67.5906 320.475 66.0083C320.04 65.5337 319.862 64.9997 319.941 64.4063C320.02 63.813 320.317 63.2988 320.831 62.8637C321.385 62.4681 321.958 62.3099 322.551 62.389C323.144 62.4681 323.639 62.7252 324.034 63.1603C324.983 64.2679 326.229 65.1183 327.771 65.7117C329.352 66.305 331.092 66.6017 332.99 66.6017C335.917 66.6017 338.032 66.1072 339.337 65.1183C340.642 64.0899 341.314 62.8637 341.354 61.4397C341.354 60.0157 340.681 58.8488 339.337 57.939C337.993 56.9897 335.778 56.2579 332.694 55.7437C328.7 55.1108 325.774 54.0032 323.915 52.421C322.057 50.8388 321.128 48.9599 321.128 46.7843C321.128 44.767 321.661 43.0859 322.729 41.741C323.797 40.3961 325.22 39.3875 327 38.715C328.779 38.0426 330.736 37.7063 332.872 37.7063C335.521 37.7063 337.795 38.1612 339.693 39.071C341.631 39.9808 343.192 41.207 344.379 42.7497C344.774 43.2639 344.932 43.7979 344.853 44.3517C344.774 44.9055 344.458 45.3603 343.904 45.7163C343.43 45.9932 342.876 46.0921 342.243 46.013C341.65 45.8943 341.136 45.5977 340.701 45.123C338.764 42.9079 336.114 41.8003 332.753 41.8003C330.578 41.8003 328.838 42.2552 327.533 43.165C326.229 44.0352 325.576 45.1428 325.576 46.4877C325.576 47.8326 326.149 48.9401 327.296 49.8103C328.483 50.6806 330.697 51.3926 333.939 51.9463C336.905 52.421 339.238 53.133 340.938 54.0823C342.678 54.9921 343.904 56.0799 344.616 57.3457C345.367 58.5719 345.743 59.9168 345.743 61.3803C345.743 63.2395 345.189 64.881 344.082 66.305C343.015 67.6895 341.512 68.7772 339.574 69.5683C337.676 70.3595 335.482 70.755 332.99 70.755Z" fill="white"/>
<path d="M9.26786 44.5C9.26786 25.0435 25.0354 9.27083 44.4857 9.27083C63.936 9.27083 79.7036 25.0435 79.7036 44.5C79.7036 48.8413 78.9195 52.9951 77.4867 56.8302C77.1286 57.7896 77.6153 58.8576 78.5744 59.2162C79.533 59.5744 80.6011 59.0875 80.9596 58.1281C82.5447 53.8839 83.4107 49.2912 83.4107 44.5C83.4107 22.9954 65.9834 5.5625 44.4857 5.5625C22.988 5.5625 5.56071 22.9954 5.56071 44.5C5.56071 66.0046 22.988 83.4375 44.4857 83.4375C46.4683 83.4375 48.4171 83.2892 50.3222 83.0025C51.3343 82.8501 52.0316 81.9056 51.8792 80.8932C51.7272 79.8805 50.783 79.1829 49.7706 79.3353C48.0479 79.5946 46.2829 79.7292 44.4857 79.7292C25.0354 79.7292 9.26786 63.9565 9.26786 44.5Z" fill="white"/>
<path d="M59.3143 68.6042C58.2907 68.6042 57.4607 69.4345 57.4607 70.4583C57.4607 71.4822 58.2907 72.3125 59.3143 72.3125H64.875V77.875C64.875 78.8989 65.705 79.7292 66.7286 79.7292C67.7521 79.7292 68.5821 78.8989 68.5821 77.875V72.3125H74.1429C75.1664 72.3125 75.9964 71.4822 75.9964 70.4583C75.9964 69.4345 75.1664 68.6042 74.1429 68.6042H68.5821V63.0417C68.5821 62.0178 67.7521 61.1875 66.7286 61.1875C65.705 61.1875 64.875 62.0178 64.875 63.0417V68.6042H59.3143Z" fill="white"/>
<path fill-rule="evenodd" clip-rule="evenodd" d="M38.0249 31.7851C37.4525 31.4414 36.7393 31.4325 36.1581 31.7615C35.5771 32.0907 35.2179 32.707 35.2179 33.375V55.625C35.2179 56.2929 35.5771 56.9092 36.1581 57.2385C36.7393 57.5678 37.4525 57.5585 38.0249 57.2148L56.5606 46.0898C57.1193 45.7549 57.4607 45.1512 57.4607 44.5C57.4607 43.8488 57.1193 43.2451 56.5606 42.9103L38.0249 31.7851ZM52.0045 44.5L38.925 52.3502V36.6498L52.0045 44.5Z" fill="white"/>
</svg>
