<svg width="387" height="72" viewBox="0 0 387 72" fill="none" xmlns="http://www.w3.org/2000/svg">
<path d="M91.872 57C90.272 57 88.832 56.6 87.552 55.8C86.272 54.968 85.264 53.848 84.528 52.44C83.792 51.032 83.424 49.448 83.424 47.688V35.832H81.216C80.544 35.832 80 35.64 79.584 35.256C79.168 34.872 78.96 34.392 78.96 33.816C78.96 33.176 79.168 32.664 79.584 32.28C80 31.896 80.544 31.704 81.216 31.704H83.424V24.792C83.424 24.088 83.648 23.512 84.096 23.064C84.544 22.616 85.12 22.392 85.824 22.392C86.528 22.392 87.104 22.616 87.552 23.064C88 23.512 88.224 24.088 88.224 24.792V31.704H92.304C92.976 31.704 93.52 31.896 93.936 32.28C94.352 32.664 94.56 33.176 94.56 33.816C94.56 34.392 94.352 34.872 93.936 35.256C93.52 35.64 92.976 35.832 92.304 35.832H88.224V47.688C88.224 48.968 88.576 50.04 89.28 50.904C89.984 51.768 90.848 52.2 91.872 52.2H93.504C94.08 52.2 94.56 52.424 94.944 52.872C95.36 53.32 95.568 53.896 95.568 54.6C95.568 55.304 95.296 55.88 94.752 56.328C94.24 56.776 93.568 57 92.736 57H91.872ZM107.634 57C107.122 57 106.642 56.856 106.194 56.568C105.778 56.248 105.49 55.864 105.33 55.416L98.2256 34.104C97.9696 33.112 97.9696 32.312 98.2256 31.704C98.5136 31.064 99.1216 30.744 100.05 30.744C100.658 30.744 101.154 30.92 101.538 31.272C101.954 31.592 102.29 32.152 102.546 32.952L107.73 49.128L112.626 32.568C112.786 32.024 113.058 31.592 113.442 31.272C113.826 30.92 114.354 30.744 115.026 30.744C115.666 30.744 116.178 30.92 116.562 31.272C116.978 31.592 117.25 32.024 117.378 32.568L121.698 49.464L126.978 32.952C127.426 31.48 128.258 30.744 129.474 30.744C130.37 30.744 130.978 31.064 131.298 31.704C131.618 32.312 131.602 33.112 131.25 34.104L124.146 55.416C124.018 55.864 123.746 56.248 123.33 56.568C122.914 56.856 122.434 57 121.89 57C121.378 57 120.898 56.856 120.45 56.568C120.002 56.248 119.714 55.864 119.586 55.416L114.882 37.992L109.938 55.416C109.81 55.864 109.522 56.248 109.074 56.568C108.658 56.856 108.178 57 107.634 57ZM147.906 57.192C145.25 57.192 142.882 56.632 140.802 55.512C138.754 54.36 137.138 52.792 135.954 50.808C134.802 48.792 134.226 46.488 134.226 43.896C134.226 41.272 134.77 38.968 135.858 36.984C136.978 34.968 138.514 33.4 140.466 32.28C142.418 31.128 144.658 30.552 147.186 30.552C149.682 30.552 151.826 31.112 153.618 32.232C155.41 33.32 156.77 34.84 157.698 36.792C158.658 38.712 159.138 40.936 159.138 43.464C159.138 44.072 158.93 44.584 158.514 45C158.098 45.384 157.57 45.576 156.93 45.576H138.69C139.042 47.784 140.05 49.592 141.714 51C143.41 52.376 145.474 53.064 147.906 53.064C148.898 53.064 149.906 52.888 150.93 52.536C151.986 52.152 152.834 51.72 153.474 51.24C153.954 50.888 154.466 50.712 155.01 50.712C155.586 50.68 156.082 50.84 156.498 51.192C157.042 51.672 157.33 52.2 157.362 52.776C157.394 53.352 157.138 53.848 156.594 54.264C155.506 55.128 154.146 55.832 152.514 56.376C150.914 56.92 149.378 57.192 147.906 57.192ZM147.186 34.68C144.818 34.68 142.914 35.336 141.474 36.648C140.034 37.96 139.122 39.656 138.738 41.736H154.722C154.434 39.688 153.65 38.008 152.37 36.696C151.09 35.352 149.362 34.68 147.186 34.68ZM171.623 57C170.215 57 168.967 56.616 167.879 55.848C166.791 55.08 165.943 54.04 165.335 52.728C164.727 51.384 164.423 49.848 164.423 48.12V21.912C164.423 21.208 164.647 20.632 165.095 20.184C165.543 19.736 166.119 19.512 166.823 19.512C167.527 19.512 168.103 19.736 168.551 20.184C168.999 20.632 169.223 21.208 169.223 21.912V48.12C169.223 49.304 169.447 50.28 169.895 51.048C170.343 51.816 170.919 52.2 171.623 52.2H172.823C173.463 52.2 173.975 52.424 174.359 52.872C174.775 53.32 174.983 53.896 174.983 54.6C174.983 55.304 174.679 55.88 174.071 56.328C173.463 56.776 172.679 57 171.719 57H171.623ZM187.2 56.952C186.208 56.952 185.44 56.424 184.896 55.368L174.72 33.912C174.464 33.368 174.432 32.84 174.624 32.328C174.848 31.784 175.264 31.368 175.872 31.08C176.416 30.792 176.96 30.744 177.504 30.936C178.08 31.128 178.512 31.496 178.8 32.04L187.152 50.04L195.408 32.04C195.696 31.496 196.128 31.128 196.704 30.936C197.312 30.744 197.92 30.792 198.528 31.08C199.104 31.336 199.488 31.736 199.68 32.28C199.872 32.824 199.84 33.368 199.584 33.912L189.408 55.368C188.928 56.424 188.192 56.952 187.2 56.952ZM216.015 57.192C213.359 57.192 210.991 56.632 208.911 55.512C206.863 54.36 205.247 52.792 204.063 50.808C202.911 48.792 202.335 46.488 202.335 43.896C202.335 41.272 202.879 38.968 203.967 36.984C205.087 34.968 206.623 33.4 208.575 32.28C210.527 31.128 212.767 30.552 215.295 30.552C217.791 30.552 219.935 31.112 221.727 32.232C223.519 33.32 224.879 34.84 225.807 36.792C226.767 38.712 227.247 40.936 227.247 43.464C227.247 44.072 227.039 44.584 226.623 45C226.207 45.384 225.679 45.576 225.039 45.576H206.799C207.151 47.784 208.159 49.592 209.823 51C211.519 52.376 213.583 53.064 216.015 53.064C217.007 53.064 218.015 52.888 219.039 52.536C220.095 52.152 220.943 51.72 221.583 51.24C222.063 50.888 222.575 50.712 223.119 50.712C223.695 50.68 224.191 50.84 224.607 51.192C225.151 51.672 225.439 52.2 225.471 52.776C225.503 53.352 225.247 53.848 224.703 54.264C223.615 55.128 222.255 55.832 220.623 56.376C219.023 56.92 217.487 57.192 216.015 57.192ZM215.295 34.68C212.927 34.68 211.023 35.336 209.583 36.648C208.143 37.96 207.231 39.656 206.847 41.736H222.831C222.543 39.688 221.759 38.008 220.479 36.696C219.199 35.352 217.471 34.68 215.295 34.68ZM233.348 46.296C232.644 46.296 232.052 46.072 231.572 45.624C231.124 45.176 230.9 44.6 230.9 43.896C230.9 43.16 231.124 42.568 231.572 42.12C232.052 41.672 232.644 41.448 233.348 41.448H244.052C244.756 41.448 245.332 41.672 245.78 42.12C246.228 42.568 246.452 43.16 246.452 43.896C246.452 44.6 246.228 45.176 245.78 45.624C245.332 46.072 244.756 46.296 244.052 46.296H233.348ZM261.794 57C260.194 57 258.754 56.6 257.474 55.8C256.194 54.968 255.186 53.848 254.45 52.44C253.714 51.032 253.346 49.448 253.346 47.688V35.832H251.138C250.466 35.832 249.922 35.64 249.506 35.256C249.09 34.872 248.882 34.392 248.882 33.816C248.882 33.176 249.09 32.664 249.506 32.28C249.922 31.896 250.466 31.704 251.138 31.704H253.346V24.792C253.346 24.088 253.57 23.512 254.018 23.064C254.466 22.616 255.042 22.392 255.746 22.392C256.45 22.392 257.026 22.616 257.474 23.064C257.922 23.512 258.146 24.088 258.146 24.792V31.704H262.226C262.898 31.704 263.442 31.896 263.858 32.28C264.274 32.664 264.482 33.176 264.482 33.816C264.482 34.392 264.274 34.872 263.858 35.256C263.442 35.64 262.898 35.832 262.226 35.832H258.146V47.688C258.146 48.968 258.498 50.04 259.202 50.904C259.906 51.768 260.77 52.2 261.794 52.2H263.426C264.002 52.2 264.482 52.424 264.866 52.872C265.282 53.32 265.49 53.896 265.49 54.6C265.49 55.304 265.218 55.88 264.674 56.328C264.162 56.776 263.49 57 262.658 57H261.794ZM282.548 57.24C280.34 57.24 278.356 56.776 276.596 55.848C274.868 54.888 273.492 53.496 272.468 51.672C271.476 49.848 270.98 47.608 270.98 44.952V33.144C270.98 32.44 271.204 31.864 271.652 31.416C272.132 30.936 272.724 30.696 273.428 30.696C274.132 30.696 274.708 30.936 275.156 31.416C275.636 31.864 275.876 32.44 275.876 33.144V44.952C275.876 47.672 276.596 49.672 278.036 50.952C279.508 52.2 281.332 52.824 283.508 52.824C284.884 52.824 286.1 52.552 287.156 52.008C288.244 51.464 289.108 50.728 289.748 49.8C290.388 48.872 290.708 47.832 290.708 46.68V33.144C290.708 32.408 290.932 31.816 291.38 31.368C291.86 30.92 292.452 30.696 293.156 30.696C293.892 30.696 294.484 30.92 294.932 31.368C295.38 31.816 295.604 32.408 295.604 33.144V54.552C295.604 55.256 295.38 55.848 294.932 56.328C294.484 56.776 293.892 57 293.156 57C292.452 57 291.86 56.776 291.38 56.328C290.932 55.848 290.708 55.256 290.708 54.552V54.024C289.716 55.016 288.516 55.8 287.108 56.376C285.7 56.952 284.18 57.24 282.548 57.24ZM306.674 57.048C305.97 57.048 305.378 56.824 304.898 56.376C304.45 55.896 304.226 55.304 304.226 54.6V33.192C304.226 32.456 304.45 31.864 304.898 31.416C305.378 30.968 305.97 30.744 306.674 30.744C307.41 30.744 308.002 30.968 308.45 31.416C308.898 31.864 309.122 32.456 309.122 33.192V33.72C310.114 32.728 311.314 31.944 312.722 31.368C314.13 30.792 315.65 30.504 317.282 30.504C319.49 30.504 321.458 30.984 323.186 31.944C324.946 32.872 326.322 34.248 327.314 36.072C328.338 37.896 328.85 40.136 328.85 42.792V54.6C328.85 55.304 328.61 55.896 328.13 56.376C327.682 56.824 327.106 57.048 326.402 57.048C325.698 57.048 325.106 56.824 324.626 56.376C324.178 55.896 323.954 55.304 323.954 54.6V42.792C323.954 40.072 323.218 38.088 321.746 36.84C320.306 35.56 318.498 34.92 316.322 34.92C314.978 34.92 313.762 35.192 312.674 35.736C311.586 36.28 310.722 37.016 310.082 37.944C309.442 38.84 309.122 39.88 309.122 41.064V54.6C309.122 55.304 308.898 55.896 308.45 56.376C308.002 56.824 307.41 57.048 306.674 57.048ZM349.281 57.192C346.625 57.192 344.257 56.632 342.177 55.512C340.129 54.36 338.513 52.792 337.329 50.808C336.177 48.792 335.601 46.488 335.601 43.896C335.601 41.272 336.145 38.968 337.233 36.984C338.353 34.968 339.889 33.4 341.841 32.28C343.793 31.128 346.033 30.552 348.561 30.552C351.057 30.552 353.201 31.112 354.993 32.232C356.785 33.32 358.145 34.84 359.073 36.792C360.033 38.712 360.513 40.936 360.513 43.464C360.513 44.072 360.305 44.584 359.889 45C359.473 45.384 358.945 45.576 358.305 45.576H340.065C340.417 47.784 341.425 49.592 343.089 51C344.785 52.376 346.849 53.064 349.281 53.064C350.273 53.064 351.281 52.888 352.305 52.536C353.361 52.152 354.209 51.72 354.849 51.24C355.329 50.888 355.841 50.712 356.385 50.712C356.961 50.68 357.457 50.84 357.873 51.192C358.417 51.672 358.705 52.2 358.737 52.776C358.769 53.352 358.513 53.848 357.969 54.264C356.881 55.128 355.521 55.832 353.889 56.376C352.289 56.92 350.753 57.192 349.281 57.192ZM348.561 34.68C346.193 34.68 344.289 35.336 342.849 36.648C341.409 37.96 340.497 39.656 340.113 41.736H356.097C355.809 39.688 355.025 38.008 353.745 36.696C352.465 35.352 350.737 34.68 348.561 34.68ZM376.31 57.192C374.07 57.192 371.99 56.856 370.07 56.184C368.182 55.48 366.71 54.6 365.654 53.544C365.174 53.032 364.966 52.456 365.03 51.816C365.126 51.144 365.446 50.6 365.99 50.184C366.63 49.672 367.254 49.464 367.862 49.56C368.502 49.624 369.046 49.896 369.493 50.376C370.038 50.984 370.902 51.56 372.086 52.104C373.302 52.616 374.646 52.872 376.118 52.872C377.974 52.872 379.382 52.568 380.342 51.96C381.334 51.352 381.846 50.568 381.878 49.608C381.91 48.648 381.446 47.816 380.486 47.112C379.558 46.408 377.846 45.832 375.35 45.384C372.118 44.744 369.766 43.784 368.294 42.504C366.854 41.224 366.134 39.656 366.134 37.8C366.134 36.168 366.614 34.824 367.574 33.768C368.534 32.68 369.766 31.88 371.27 31.368C372.774 30.824 374.342 30.552 375.974 30.552C378.086 30.552 379.958 30.888 381.59 31.56C383.222 32.232 384.518 33.16 385.478 34.344C385.926 34.856 386.134 35.4 386.102 35.976C386.07 36.52 385.798 36.984 385.286 37.368C384.774 37.72 384.166 37.832 383.462 37.704C382.758 37.576 382.166 37.288 381.686 36.84C380.886 36.072 380.022 35.544 379.094 35.256C378.166 34.968 377.094 34.824 375.878 34.824C374.47 34.824 373.27 35.064 372.278 35.544C371.318 36.024 370.838 36.728 370.838 37.656C370.838 38.232 370.982 38.76 371.27 39.24C371.59 39.688 372.198 40.104 373.094 40.488C373.99 40.84 375.302 41.192 377.03 41.544C380.646 42.248 383.142 43.256 384.518 44.568C385.926 45.848 386.63 47.432 386.63 49.32C386.63 50.792 386.23 52.12 385.43 53.304C384.662 54.488 383.51 55.432 381.974 56.136C380.47 56.84 378.582 57.192 376.31 57.192Z" fill="white"/>
<path d="M7.5 36C7.5 20.2599 20.2599 7.5 36 7.5C51.7401 7.5 64.5 20.2599 64.5 36C64.5 39.5121 63.8655 42.8724 62.706 45.975C62.4162 46.7511 62.8101 47.6151 63.5862 47.9052C64.362 48.195 65.2263 47.8011 65.5164 47.025C66.7992 43.5915 67.5 39.876 67.5 36C67.5 18.603 53.397 4.5 36 4.5C18.603 4.5 4.5 18.603 4.5 36C4.5 53.397 18.603 67.5 36 67.5C37.6044 67.5 39.1815 67.38 40.7232 67.1481C41.5422 67.0248 42.1065 66.2607 41.9832 65.4417C41.8602 64.6224 41.0961 64.0581 40.2768 64.1814C38.8827 64.3911 37.4544 64.5 36 64.5C20.2599 64.5 7.5 51.7401 7.5 36Z" fill="white"/>
<path d="M48 55.5C47.1717 55.5 46.5 56.1717 46.5 57C46.5 57.8283 47.1717 58.5 48 58.5H52.5V63C52.5 63.8283 53.1717 64.5 54 64.5C54.8283 64.5 55.5 63.8283 55.5 63V58.5H60C60.8283 58.5 61.5 57.8283 61.5 57C61.5 56.1717 60.8283 55.5 60 55.5H55.5V51C55.5 50.1717 54.8283 49.5 54 49.5C53.1717 49.5 52.5 50.1717 52.5 51V55.5H48Z" fill="white"/>
<path fill-rule="evenodd" clip-rule="evenodd" d="M30.7716 25.7138C30.3084 25.4357 29.7312 25.4285 29.2609 25.6947C28.7907 25.961 28.5 26.4596 28.5 27V45C28.5 45.5403 28.7907 46.0389 29.2609 46.3053C29.7312 46.5717 30.3084 46.5642 30.7716 46.2861L45.7716 37.2861C46.2237 37.0152 46.5 36.5268 46.5 36C46.5 35.4732 46.2237 34.9848 45.7716 34.7139L30.7716 25.7138ZM42.0846 36L31.5 42.3507V29.6493L42.0846 36Z" fill="white"/>
</svg>
